HIERARCHY
ROOT Hips
{
  OFFSET -187.679 86.5976 -156.378
  CHANNELS 6 Xposition Yposition Zposition Zrotation Xrotation Yrotation
  JOINT LeftUpLeg
  {
    OFFSET 8.64259 1.95398 -2.38835
    CHANNELS 3 Zrotation Xrotation Yrotation
    JOINT LeftLeg
    {
      OFFSET 43.7702 0 0
      CHANNELS 3 Zrotation Xrotation Yrotation
      JOINT LeftFoot
      {
        OFFSET 40.6238 0 0
        CHANNELS 3 Zrotation Xrotation Yrotation
        JOINT LeftToeBase
        {
          OFFSET 12.7242 0 0
          CHANNELS 3 Zrotation Xrotation Yrotation
          End Site
          {
            OFFSET 0 0 0
          }
        }
      }
    }
  }
  JOINT RightUpLeg
  {
    OFFSET -8.2249 1.95398 -2.59336
    CHANNELS 3 Zrotation Xrotation Yrotation
    JOINT RightLeg
    {
      OFFSET 43.5653 0 0
      CHANNELS 3 Zrotation Xrotation Yrotation
      JOINT RightFoot
      {
        OFFSET 40.6238 0 0
        CHANNELS 3 Zrotation Xrotation Yrotation
        JOINT RightToeBase
        {
          OFFSET 12.7242 0 0
          CHANNELS 3 Zrotation Xrotation Yrotation
          End Site
          {
            OFFSET 0 0 0
          }
        }
      }
    }
  }
  JOINT Spine
  {
    OFFSET 0.165834 0.87714 6.61349
    CHANNELS 3 Zrotation Xrotation Yrotation
    JOINT Spine1
    {
      OFFSET 7.38963 1.71661e-005 0
      CHANNELS 3 Zrotation Xrotation Yrotation
      JOINT Spine2
      {
        OFFSET 11.9445 1.14441e-005 0
        CHANNELS 3 Zrotation Xrotation Yrotation
        JOINT Spine3
        {
          OFFSET 14.7254 4.19617e-005 0
          CHANNELS 3 Zrotation Xrotation Yrotation
          JOINT Spine4
          {
            OFFSET 10.9679 0 0
            CHANNELS 3 Zrotation Xrotation Yrotation
            JOINT RightShoulder
            {
              OFFSET 2.46616 -1.6653 3.69651
              CHANNELS 3 Zrotation Xrotation Yrotation
              JOINT RightArm
              {
                OFFSET 13.0012 0 0
                CHANNELS 3 Zrotation Xrotation Yrotation
                JOINT RightForeArm
                {
                  OFFSET 28.7848 1.52588e-005 0
                  CHANNELS 3 Zrotation Xrotation Yrotation
                  JOINT RightHand
                  {
                    OFFSET 26.5688 1.52588e-005 0
                    CHANNELS 3 Zrotation Xrotation Yrotation
                    End Site
                    {
                      OFFSET 0 0 0
                    }
                  }
                }
              }
            }
            JOINT LeftShoulder
            {
              OFFSET 2.38034 -1.29275 -3.7523
              CHANNELS 3 Zrotation Xrotation Yrotation
              JOINT LeftArm
              {
                OFFSET 16.3182 6.10352e-005 0
                CHANNELS 3 Zrotation Xrotation Yrotation
                JOINT LeftForeArm
                {
                  OFFSET 27.0901 0 0
                  CHANNELS 3 Zrotation Xrotation Yrotation
                  JOINT LeftHand
                  {
                    OFFSET 24.5451 1.52588e-005 0
                    CHANNELS 3 Zrotation Xrotation Yrotation
                    End Site
                    {
                      OFFSET 0 0 0
                    }
                  }
                }
              }
            }
            JOINT Neck
            {
              OFFSET 5.0226 -0.0266342 0
              CHANNELS 3 Zrotation Xrotation Yrotation
              JOINT Head
              {
                OFFSET 6.69363 2.86102e-005 0
                CHANNELS 3 Zrotation Xrotation Yrotation
                End Site
                {
                  OFFSET 0 0 0
                }
              }
            }
          }
        }
      }
    }
  }
}
MOTION
Frames:	6
Frame Time:	0.0416667
16.7235 100.163 -53.3662 -129.853 -77.9191 -132.583 -176.408 0.864494 81.6206 -29.6619 8.36006 5.55266 77.4714 6.51949 -1.24608 11.9641 -8.83203 3.87965 176.325 16.7821 88.7305 -51.5305 7.03198 -2.14987 68.5082 -4.01892 -0.412622 23.5218 -1.53376 2.12917 -0.100571 7.93045 -89.5093 11.0128 0.0271758 0.973689 -0.658519 0.0700103 0.971545 -23.1911 -0.266702 0.93685 -3.17842 -0.266705 0.936844 87.5053 -47.6149 -105.096 29.2054 -23.5243 -8.69014 -17.2093 -14.0596 -19.55 -9.12848 0.0097703 -5.40782 -89.0149 -44.066 79.1658 -17.001 13.6061 -19.3197 6.6949 -18.4625 -12.6859 -1.08897 -0.0791373 -3.59391 3.73315 3.54519 -2.71251 6.93732 3.86084 -0.904922 
16.1237 99.8007 -45.7728 -145.744 -81.5321 -148.649 -176.142 -4.05615 82.1877 -28.5048 13.0086 6.38965 80.0262 8.32337 -0.558304 11.0779 -8.84802 3.11707 175.687 19.4826 89.3771 -29.8544 9.1208 0.979277 62.8217 -2.33305 -0.733241 24.9613 -1.23827 2.00384 -0.725648 7.96715 -89.5623 10.9446 -1.24205 0.98853 -0.72618 -1.19735 1.04222 -23.2649 -1.48172 0.569501 -3.25221 -1.48172 0.569491 87.8288 -48.8153 -104.253 30.2635 -19.2627 -1.28399 -19.1519 -14.8579 -22.1101 -7.51418 -0.0644439 -4.27825 -89.0145 -40.6268 78.3579 -14.3381 10.8759 -30.1157 7.21399 -15.5175 -16.6467 0.31127 -0.0974362 -4.64389 3.67715 3.70857 -4.92766 7.20192 4.58264 1.23567 
15.6741 98.4914 -37.3625 -175.489 -83.0174 -179.734 -175.267 -10.3008 82.9407 -27.4818 17.3448 6.45974 83.3708 10.288 -1.15474 11.6823 -9.18536 4.2945 174.849 17.8172 88.0134 -7.4858 14.2599 3.30978 59.7293 -1.9413 -1.02803 25.2947 -1.90919 4.26257 -1.16707 8.02626 -89.4574 10.833 -2.07315 1.27265 -0.836986 -2.01513 1.36267 -23.3839 -2.35974 0.590503 -3.3713 -2.35975 0.590491 87.9816 -50.0844 -103.672 31.4553 -15.1496 4.20272 -17.869 -13.0621 -18.498 -8.20563 -0.0472595 -4.63424 -89.7258 -39.3202 76.8354 -10.6005 8.4745 -39.2469 8.96133 -10.1857 -18.564 0.325699 -0.11723 -5.48686 3.22527 3.5693 -6.60217 7.72626 4.81063 2.28568 
15.3025 96.3827 -28.197 150.764 -82.2139 145.181 -173.799 -15.711 84.6431 -28.6225 22.1582 7.09763 85.9124 11.7866 -1.76232 13.9563 -8.84577 5.85326 174.212 21.4663 85.4174 -8.86974 22.6951 5.21463 62.852 -2.09868 -0.163017 27.1739 -1.0976 2.77371 -1.46745 8.03698 -89.4557 10.8164 -2.67061 1.33092 -0.85261 -2.60945 1.44722 -23.4088 -2.94706 0.466177 -3.39612 -2.94705 0.466184 88.6749 -50.0274 -102.633 33.5463 -14.4318 7.34641 -15.1296 -10.3233 -11.4577 -6.20368 0.0650137 -6.7893 -90.9726 -40.1185 74.9616 -8.96453 8.02928 -45.4323 9.78876 -7.44219 -18.0963 -0.588416 -0.110744 -5.78095 4.39866 2.78182 -6.79199 7.15013 4.19508 3.03764 
15.1324 95.2972 -18.7654 128.34 -79.9633 122.463 -172.788 -18.1292 86.8082 -31.9567 25.3117 8.47865 79.7545 10.2669 1.27178 24.4763 -3.04833 3.51148 171.357 26.1222 83.3553 -21.1617 20.6386 7.10099 57.8001 0.867933 -0.343745 23.1603 -0.622023 -0.636608 -1.55018 8.08121 -89.6779 10.7261 -2.93848 0.911333 -0.941976 -2.89552 1.03986 -23.5039 -3.07641 -0.0147532 -3.49125 -3.0764 -0.0147535 88.3962 -49.6777 -103.149 34.2727 -14.2119 7.19963 -12.5493 -7.18643 -1.71365 -4.93031 0.116705 -8.73119 -92.2601 -40.788 73.0381 -8.11562 12.1913 -49.2831 9.54078 -5.58957 -13.1771 -1.80141 -0.0931442 -5.23632 8.58101 1.77211 -4.35384 6.17829 2.85685 2.68119 
14.629 94.062 -10.7287 120.65 -79.9415 115.27 -170.728 -11.0625 90.4977 -46.8874 27.9135 6.64772 68.0979 5.34996 3.13139 32.1632 1.20737 0.277165 168.732 33.4613 82.87 -39.4775 14.5295 9.43116 59.4266 1.13513 -0.919992 13.2157 -2.48048 -0.0295327 -1.23214 8.36767 -89.9645 10.1432 -2.43895 0.276004 -1.52552 -2.42444 0.383137 -24.0787 -2.40909 -0.470206 -4.06603 -2.40908 -0.470196 87.6888 -48.229 -104.635 31.6846 -17.5224 1.99989 -11.0626 -6.17081 -0.00599473 -4.89833 0.11701 -8.74863 -92.5464 -38.9963 71.9943 -1.72198 20.2049 -55.5336 6.64311 -5.02742 -3.11818 -5.37963 -0.0594435 -5.22759 15.6999 0.952539 -2.09011 5.97437 1.67757 2.43065 
